<svg height="70.87" viewBox="0 0 70.87 70.87" width="70.87" xmlns="http://www.w3.org/2000/svg"><path d="M58.37 60.728a134.448 134.448 0 0112.297-47.122v-.001c.129-.305.201-.641.201-.992V2.554A2.553 2.553 0 0068.315.002H43.052c-1.02 0-1.891.602-2.299 1.465l-.07.151c-.736 1.6-1.445 3.212-2.115 4.826a151.537 151.537 0 00-3.17 8.221 162.671 162.671 0 00-3.184-8.221 159.874 159.874 0 00-2.16-4.905 2.552 2.552 0 00-2.34-1.537H2.553A2.552 2.552 0 00.002 2.554v10.088a2.536 2.536 0 00.212 1.013A134.267 134.267 0 0112.513 60.87c.015.115.015.219.015.336a3.223 3.223 0 01-6.405.502 6.842 6.842 0 01-.038-.555c-.679-9.121-2.343-19.816-4.841-28.308l-.027-.079a.635.635 0 00-.573-.372H.635a.638.638 0 00-.633.637v35.286a2.552 2.552 0 002.551 2.551h14.195a2.549 2.549 0 002.547-2.504l-.002-.115c-.023-1.277-.06-2.555-.118-3.822-.85-18.928-5.425-36.903-13.026-53.202l-.129-.284a3.236 3.236 0 012.976-4.497h.013c1.225 0 2.358.824 2.899 1.829a147.507 147.507 0 0113.709 56.153c.059 1.283.096 2.568.118 3.857l.002.08a2.547 2.547 0 002.546 2.504h14.294a2.564 2.564 0 002.564-2.469c.023-1.326.053-2.65.111-3.973A147.515 147.515 0 0158.95 8.273c.555-1.005 1.674-1.829 2.91-1.829h.014a3.227 3.227 0 013.223 3.234c0 .567-.131 1.082-.375 1.546-7.602 16.299-12.176 34.275-13.026 53.203a137.06 137.06 0 00-.119 3.861l-.002.049a2.55 2.55 0 002.549 2.531h14.191a2.553 2.553 0 002.553-2.551V33.031a.65.65 0 00-.061-.264.633.633 0 00-.572-.372h-.01a.636.636 0 00-.557.352c-.02.062-.037.125-.057.188-2.529 8.579-4.186 19.294-4.852 28.517v.115a3.223 3.223 0 01-3.207 2.861 3.221 3.221 0 01-3.223-3.209v-.012c.002-.065.027-.388.041-.479zM28.838 38.722a151.898 151.898 0 00-8.716-27.78 3.168 3.168 0 01-.252-1.263 3.226 3.226 0 013.222-3.234h.014c1.34 0 2.486.812 2.976 1.972a155.472 155.472 0 015.979 16.737 160.913 160.913 0 00-3.223 13.568zm21.839-27.82C43.497 27.908 39.954 44.825 38.94 61.54a3.223 3.223 0 01-6.43-.334c0-.129.013-.258.025-.387.783-15.836 5.064-35.789 12.273-52.48.516-1.07 1.654-1.895 2.918-1.895h.025a3.22 3.22 0 013.182 3.209c.002.438-.088.864-.256 1.249z" fill="#c90835"/></svg>